{"title":"Doctor Who 2005 S08E08 Mummy On The Orient Express 720p HDTV X26","uid":11200296,"size":393825109,"categoryP":"video","categoryS":"hd___tv_shows","magnet":"?xt=urn:btih:e27bed3d7a39e888a011b4d4c3f72a7b820d5c63&amp;dn=Doctor+Who+2005+S08E08+Mummy+On+The+Orient+Express+720p+HDTV+X26&amp;tr=udp%3A%2F%2Ftracker.openbittorrent.com%3A80&amp;tr=udp%3A%2F%2Fopen.demonii.com%3A1337&amp;tr=udp%3A%2F%2Ftracker.coppersurfer.tk%3A6969&amp;tr=udp%3A%2F%2Fexodus.desync.com%3A6969","seeders":4,"leechers":1,"uploader":"atm50","files":-1,"time":1413162465,"description":"The Doctor and Clara are on the most beautiful train in history speeding among the stars of the future. But a deadly creature is stalking the passengers. Once you see the horrifying Mummy you only have 66 seconds to live. No exceptions, no reprieve. As the Doctor races against the clock Clara sees him at his deadliest and most ruthless. Will he work out how to defeat the Mummy? Start the clock!\n\nSource: Doctor Who 2005 8x08 Mummy On The Orient Express 720p HDTV x264-FoV [eztv]\n\nFormat                         : MPEG-4\nFile size                      : 376 MiB\nDuration                       : 46mn 3s\nOverall bit rate               : 1 140 Kbps\n\nVideo\n\nFormat                         : HEVC [X265]\nBit rate                       : 881 Kbps\nMaximum bit rate               : 8 268 Kbps\nWidth                          : 1 280 pixels\nHeight                         : 720 pixels\nDisplay aspect ratio           : 16:9\nFrame rate                     : 25.000 fps\nStream size                    : 290 MiB (77%)\n\nAudio\n\nFormat                         : AC-3\nBit rate                       : 256 Kbps\nChannel(s)                     : 6 channels (5.1)\nSampling rate                  : 48.0 KHz\nBit depth                      : 16 bits\nCompression mode               : Lossy\nStream size                    : 84.3 MiB (22%)\n\nSubtitles: English (External)","torrent":{"xt":"urn:btih:e27bed3d7a39e888a011b4d4c3f72a7b820d5c63","amp;dn":"Doctor+Who+2005+S08E08+Mummy+On+The+Orient+Express+720p+HDTV+X26","amp;tr":["udp%3A%2F%2Ftracker.openbittorrent.com%3A80","udp%3A%2F%2Fopen.demonii.com%3A1337","udp%3A%2F%2Ftracker.coppersurfer.tk%3A6969","udp%3A%2F%2Fexodus.desync.com%3A6969"],"infoHash":"e27bed3d7a39e888a011b4d4c3f72a7b820d5c63","infoHashBuffer":{"type":"Buffer","data":[226,123,237,61,122,57,232,136,160,17,180,212,195,247,42,123,130,13,92,99]},"announce":[],"urlList":[]}}